<svg width="1920" height="1080" viewBox="0 0 1920 1080" fill="none" xmlns="http://www.w3.org/2000/svg">
<path d="M401 597.5C369.76 565.129 368.876 512.209 400.816 480.269C432.759 448.326 484.212 448.073 516.583 479.317L456 539.5" stroke="#002584" stroke-width="9"/>
<path d="M400.984 597.5C432.924 629.44 484.479 629.79 516.85 598.551L457 538.5" stroke="#002584" stroke-width="9"/>
<path d="M610 540.828L686.521 464.307H543.713" stroke="#002584" stroke-width="9"/>
<path d="M613 464H544V615H613" stroke="#002584" stroke-width="9"/>
<path d="M543.395 615.333H686.199L609.866 539" stroke="#002584" stroke-width="9"/>
<path d="M749.796 474.422C718.547 506.798 718.805 558.251 750.743 590.189C782.688 622.135 834.239 622.485 866.614 591.241" stroke="#002584" stroke-width="9"/>
<path d="M865.818 591.988C897.062 559.617 896.809 508.159 864.866 476.221C832.926 444.281 781.371 443.931 749 475.17" stroke="#002584" stroke-width="9"/>
<path d="M67.7188 466.703L141.693 539.734L67.7188 612.771V466.703Z" stroke="#002584" stroke-width="9"/>
<path d="M188.339 612.937L114.364 539.901L188.339 466.87V612.937Z" stroke="#002584" stroke-width="9"/>
<path d="M215.997 615.297L287.255 469.591L358.508 615.297H215.997Z" stroke="#002584" stroke-width="9"/>
<path d="M249.988 614.781L287.208 548.954L324.424 614.781H249.988Z" stroke="#002584" stroke-width="9"/>
<path d="M920 463H1043V508C994.966 508 968.034 508 920 508V463Z" stroke="#002584" stroke-width="9"/>
<path d="M969.781 463.219H920.167V607.547H969.781V552" stroke="#002584" stroke-width="9"/>
<path d="M968 508H1012V552H968" stroke="#002584" stroke-width="9"/>
<path d="M1586 509.818H1550.38V465.458H1673.66V509.818H1637.5" stroke="#002584" stroke-width="9"/>
<path d="M1587.21 465.458H1636.82V609.792H1587.21V465.458Z" stroke="#002584" stroke-width="9"/>
<path d="M1091.83 463.219H1141.45V607.547H1091.83V463.219Z" stroke="#002584" stroke-width="9"/>
<path d="M1183.26 464.615H1306.53V512.917H1183.26V464.615Z" stroke="#002584" stroke-width="9"/>
<path d="M1264 513H1229V559H1264" stroke="#002584" stroke-width="9"/>
<path d="M1183.26 559.323H1306.53V607.625H1183.26V559.323Z" stroke="#002584" stroke-width="9"/>
<path d="M1222 465H1183V608H1222" stroke="#002584" stroke-width="9"/>
<path d="M1459.06 594.492C1433.42 620.134 1392.04 620.314 1365.84 595.223L1459.87 501.185C1484.96 527.394 1484.7 568.851 1459.06 594.491V594.492Z" stroke="#002584" stroke-width="9"/>
<path d="M1389.1 479.097C1363.46 504.743 1363.2 546.2 1388.29 572.404L1482.33 478.366C1456.12 453.28 1414.74 453.459 1389.1 479.097ZM1389.1 479.097L1388.04 478.036L1389.1 479.097Z" stroke="#002584" stroke-width="9"/>
<path d="M1709.79 613.078L1781.05 467.373L1852.31 613.078H1709.79Z" stroke="#002584" stroke-width="9"/>
<path d="M1743.79 612.562L1781.01 546.735L1818.22 612.562H1743.79Z" stroke="#002584" stroke-width="9"/>
</svg>
