<svg width="227" height="227" viewBox="0 0 227 227" fill="none" xmlns="http://www.w3.org/2000/svg">
<circle cx="113.5" cy="113.5" r="113.5" fill="#5B83F1"/>
<path d="M69.6447 175.222C65.572 173.183 63 169.018 63 164.463C63 155.286 72.8622 149.487 80.882 153.949L105.965 167.905C110.433 170.391 115.86 170.43 120.363 168.008L147.129 153.612C155.208 149.267 165 155.118 165 164.292C165 168.941 162.342 173.182 158.157 175.207L119.783 193.782C115.592 195.811 110.696 195.778 106.532 193.693L69.6447 175.222Z" fill="#A3D0FA"/>
<path d="M158.145 50.6767C162.212 52.7168 164.78 56.8771 164.78 61.4268C164.78 70.6046 154.914 76.4004 146.897 71.9321L121.915 58.0072C117.441 55.5138 112.005 55.475 107.497 57.9042L80.8342 72.27C72.7581 76.6215 62.9624 70.7724 62.9624 61.5985C62.9624 56.954 65.6161 52.7179 69.7952 50.6913L108.076 32.1278C112.273 30.0926 117.178 30.1256 121.347 32.2171L158.145 50.6767Z" fill="#A3D0FA"/>
<rect x="62" y="50" width="25" height="126" rx="12.5" fill="white"/>
<rect x="135" y="97" width="25" height="73" rx="12.5" transform="rotate(90 135 97)" fill="white"/>
<rect x="140.073" y="50" width="25" height="126" rx="12.5" fill="white"/>
</svg>
