<svg width="227" height="227" viewBox="0 0 227 227" fill="none" xmlns="http://www.w3.org/2000/svg">
<circle cx="113.5" cy="113.5" r="113.5" fill="white"/>
<rect x="57" y="50" width="25" height="126" rx="12.5" fill="#5A28EA"/>
<path d="M64.6447 175.323C60.572 173.283 58 169.119 58 164.564C58 155.386 67.8622 149.588 75.882 154.05L100.965 168.005C105.433 170.491 110.86 170.53 115.363 168.108L142.129 153.712C150.208 149.367 160 155.219 160 164.392C160 169.042 157.342 173.282 153.157 175.308L114.783 193.883C110.592 195.912 105.696 195.879 101.532 193.794L64.6447 175.323Z" fill="#A3D0FA"/>
<path d="M153.145 50.7772C157.212 52.8173 159.78 56.9776 159.78 61.5274C159.78 70.7052 149.914 76.5009 141.897 72.0326L116.915 58.1077C112.441 55.6144 107.005 55.5755 102.497 58.0047L75.8342 72.3706C67.7581 76.722 57.9624 70.8729 57.9624 61.6991C57.9624 57.0546 60.6161 52.8184 64.7952 50.7919L103.076 32.2283C107.273 30.1932 112.178 30.2262 116.347 32.3176L153.145 50.7772Z" fill="#A3D0FA"/>
<rect x="57" y="50" width="25" height="126" rx="12.5" fill="#5B83F1"/>
<rect x="130" y="97.1005" width="25" height="73" rx="12.5" transform="rotate(90 130 97.1005)" fill="#5B83F1"/>
<rect x="135.073" y="50.1005" width="25" height="126" rx="12.5" fill="#5B83F1"/>
</svg>
